# xmcd CD database file
#
# Track frame offsets:
#	150
#	15420
#	33946
#	50821
#	63924
#
# Disc length: 1058 seconds
#
# Revision: 0
# Processed by: cddbd v1.5.1PL0 Copyright (c) Steve Scherf et al.
# Submitted via: CDex 1.51
#
DISCID=37042005
DTITLE=Petit-Pit - カミサマおねがいっ！
DYEAR=1900
DGENRE=インダストリアル (一般)
TTITLE0=カミサマおねがいっ！
TTITLE1=声
TTITLE2=SWEET★LOVE
TTITLE3=motto....カミサマおねがいっ！
TTITLE4=カミサマおねがいっ！(vocalless ver.)
EXTD=
EXTT0=
EXTT1=
EXTT2=
EXTT3=
EXTT4=
PLAYORDER=
